<?xml version="1.0" standalone="no"?>
<!DOCTYPE svg PUBLIC "-//W3C//DTD SVG 20010904//EN"
 "http://www.w3.org/TR/2001/REC-SVG-20010904/DTD/svg10.dtd">
<svg version="1.0" xmlns="http://www.w3.org/2000/svg"
 width="589.000000pt" height="589.000000pt" viewBox="0 0 589.000000 589.000000"
 preserveAspectRatio="xMidYMid meet">
<metadata>
Created by potrace 1.14, written by Peter Selinger 2001-2017
</metadata>
<g transform="translate(0.000000,589.000000) scale(0.100000,-0.100000)"
fill="#000000" stroke="none">
<path d="M2759 5886 c-2 -2 -39 -6 -81 -10 -443 -37 -981 -221 -1318 -450 -62
-42 -212 -148 -230 -163 -142 -113 -310 -273 -405 -383 -410 -478 -655 -1053
-713 -1670 -14 -146 -6 -532 12 -630 2 -14 7 -45 10 -70 12 -91 37 -214 63
-310 8 -30 17 -63 18 -72 14 -72 133 -375 197 -503 216 -428 564 -829 953
-1097 250 -172 522 -305 795 -390 143 -44 290 -80 380 -93 14 -2 54 -8 90 -14
168 -26 490 -34 675 -17 50 5 104 10 120 11 17 2 59 8 95 15 36 7 76 14 90 17
442 81 908 297 1279 593 89 71 326 298 376 360 11 14 48 59 81 100 165 203
344 510 433 745 13 33 27 69 32 80 52 123 129 434 154 630 29 226 27 585 -5
789 -23 153 -25 165 -46 250 -8 34 -16 68 -18 76 -59 246 -206 593 -341 802
-25 38 -45 72 -45 76 0 5 -8 17 -18 28 -10 10 -33 42 -52 69 -135 199 -394
467 -600 622 -221 165 -378 258 -610 362 -165 74 -490 175 -630 196 -24 4 -48
9 -52 11 -3 2 -28 7 -55 9 -26 3 -82 10 -123 16 -68 10 -503 22 -511 15z"/>
</g>
</svg>
